<svg width="19" height="22" viewBox="0 0 19 22" fill="none" xmlns="http://www.w3.org/2000/svg">
<path d="M13.1914 5.42188C12.7031 5.42188 12.2474 5.49674 11.8242 5.64648C11.4076 5.79622 11.0267 5.94596 10.6816 6.0957C10.3366 6.23893 10.0371 6.31055 9.7832 6.31055C9.51628 6.31055 9.22005 6.24219 8.89453 6.10547C8.56901 5.96224 8.21745 5.82227 7.83984 5.68555C7.46875 5.54883 7.07161 5.48047 6.64844 5.48047C5.84766 5.48047 5.07617 5.69857 4.33398 6.13477C3.5918 6.57096 2.98307 7.21549 2.50781 8.06836C2.03255 8.92122 1.79492 9.97266 1.79492 11.2227C1.79492 12.0039 1.88607 12.7852 2.06836 13.5664C2.25065 14.3477 2.49479 15.0866 2.80078 15.7832C3.10677 16.4798 3.44531 17.0951 3.81641 17.6289C4.29818 18.2995 4.76693 18.8757 5.22266 19.3574C5.6849 19.8392 6.21875 20.0801 6.82422 20.0801C7.22135 20.0801 7.56641 20.015 7.85938 19.8848C8.15234 19.7546 8.46159 19.6211 8.78711 19.4844C9.11914 19.3542 9.53255 19.2891 10.0273 19.2891C10.4049 19.2891 10.7207 19.3281 10.9746 19.4062C11.2285 19.4844 11.4596 19.5723 11.668 19.6699C11.8828 19.7741 12.1074 19.8652 12.3418 19.9434C12.5762 20.0215 12.8594 20.0605 13.1914 20.0605C13.6276 20.0605 14.0182 19.9434 14.3633 19.709C14.7148 19.4811 15.0371 19.1849 15.3301 18.8203C15.6296 18.4557 15.9193 18.0749 16.1992 17.6777C16.5052 17.2285 16.7526 16.7988 16.9414 16.3887C17.1367 15.972 17.2799 15.6335 17.3711 15.373C17.4622 15.1061 17.5111 14.9596 17.5176 14.9336C17.498 14.9271 17.3548 14.8555 17.0879 14.7188C16.8275 14.5755 16.528 14.3509 16.1895 14.0449C15.8574 13.7389 15.5645 13.3385 15.3105 12.8438C15.0632 12.349 14.9395 11.7435 14.9395 11.0273C14.9395 10.4023 15.0371 9.86523 15.2324 9.41602C15.4342 8.96029 15.6686 8.58594 15.9355 8.29297C16.2025 7.99349 16.4401 7.76562 16.6484 7.60938C16.8633 7.45312 16.987 7.36523 17.0195 7.3457C16.694 6.87695 16.3392 6.51237 15.9551 6.25195C15.571 5.99154 15.1934 5.80273 14.8223 5.68555C14.4512 5.56836 14.1191 5.49674 13.8262 5.4707C13.5397 5.43815 13.3281 5.42188 13.1914 5.42188ZM12.5078 3.83984C12.8073 3.48177 13.0514 3.06836 13.2402 2.59961C13.429 2.12435 13.5234 1.63607 13.5234 1.13477C13.5234 0.991536 13.5137 0.864583 13.4941 0.753906C13.0059 0.773438 12.4948 0.919922 11.9609 1.19336C11.4336 1.4668 10.9974 1.80859 10.6523 2.21875C10.3724 2.53125 10.125 2.92188 9.91016 3.39062C9.69531 3.85938 9.58789 4.34115 9.58789 4.83594C9.58789 4.91406 9.59115 4.98568 9.59766 5.05078C9.61068 5.11589 9.62044 5.16146 9.62695 5.1875C9.71159 5.20703 9.79948 5.2168 9.89062 5.2168C10.3268 5.2168 10.7891 5.08659 11.2773 4.82617C11.7721 4.56576 12.1823 4.23698 12.5078 3.83984Z" fill="#1F1F1F"/>
</svg>
