<svg width="28" height="28" viewBox="0 0 28 28" fill="none" xmlns="http://www.w3.org/2000/svg">
<path d="M21 24.5L20.4697 25.0303C20.6842 25.2448 21.0068 25.309 21.287 25.1929C21.5673 25.0768 21.75 24.8033 21.75 24.5H21ZM7 24.5H6.25C6.25 24.8033 6.43273 25.0768 6.71299 25.1929C6.99324 25.309 7.31583 25.2448 7.53033 25.0303L7 24.5ZM14 17.5L14.5303 16.9697C14.3897 16.829 14.1989 16.75 14 16.75C13.8011 16.75 13.6103 16.829 13.4697 16.9697L14 17.5ZM9.33333 5.41666H18.6667V3.91666H9.33333V5.41666ZM20.25 6.99999V24.5H21.75V6.99999H20.25ZM7.75 24.5V6.99999H6.25V24.5H7.75ZM21.5303 23.9697L14.5303 16.9697L13.4697 18.0303L20.4697 25.0303L21.5303 23.9697ZM13.4697 16.9697L6.46967 23.9697L7.53033 25.0303L14.5303 18.0303L13.4697 16.9697ZM18.6667 5.41666C19.5411 5.41666 20.25 6.12554 20.25 6.99999H21.75C21.75 5.29711 20.3695 3.91666 18.6667 3.91666V5.41666ZM9.33333 3.91666C7.63046 3.91666 6.25 5.29711 6.25 6.99999H7.75C7.75 6.12554 8.45888 5.41666 9.33333 5.41666V3.91666Z" fill="white"/>
</svg>
