<svg width="8" height="12" viewBox="0 0 8 12" fill="none" xmlns="http://www.w3.org/2000/svg">
<path d="M1.58121 11.77C1.409 11.9188 1.18982 12 0.931507 12C0.414873 12 0 11.6483 0 11.2018C0 10.9786 0.109589 10.7756 0.289628 10.6201L5.76908 5.99324L0.289628 1.37993C0.109589 1.22435 0 1.01466 0 0.798196C0 0.351747 0.414873 0 0.931507 0C1.18982 0 1.409 0.0811725 1.58121 0.229989L7.67123 5.37091C7.89041 5.54679 7.99217 5.76325 8 6C8 6.23675 7.89041 6.43968 7.67123 6.62232L1.58121 11.77Z" fill="white"/>
</svg>
