<svg width="28" height="28" viewBox="0 0 28 28" fill="none" xmlns="http://www.w3.org/2000/svg">
<path d="M13.9998 3.5L14.4937 2.93557C14.211 2.68814 13.7887 2.68814 13.506 2.93557L13.9998 3.5ZM4.6665 11.6667L4.17263 11.1022C4.00986 11.2447 3.9165 11.4504 3.9165 11.6667L4.6665 11.6667ZM23.3332 11.6667H24.0832C24.0832 11.4504 23.9898 11.2447 23.827 11.1022L23.3332 11.6667ZM23.3332 23.3333V24.0833C23.5321 24.0833 23.7229 24.0043 23.8635 23.8637C24.0042 23.723 24.0832 23.5322 24.0832 23.3333H23.3332ZM17.4998 23.3333H16.7498C16.7498 23.7475 17.0856 24.0833 17.4998 24.0833V23.3333ZM16.4747 16.1918L17.005 15.6615L17.005 15.6615L16.4747 16.1918ZM10.4998 23.3333V24.0833C10.9141 24.0833 11.2498 23.7475 11.2498 23.3333H10.4998ZM4.66651 23.3333L3.91651 23.3333C3.91651 23.7475 4.2523 24.0833 4.66651 24.0833V23.3333ZM13.506 2.93557L4.17263 11.1022L5.16038 12.2311L14.4937 4.06443L13.506 2.93557ZM23.827 11.1022L14.4937 2.93557L13.506 4.06443L22.8393 12.2311L23.827 11.1022ZM22.5832 11.6667L22.5832 23.3333L24.0832 23.3333L24.0832 11.6667L22.5832 11.6667ZM23.3332 22.5833H17.4998V24.0833H23.3332V22.5833ZM18.2498 23.3333V18.6667H16.7498V23.3333H18.2498ZM18.2498 18.6667C18.2498 17.5395 17.8021 16.4585 17.005 15.6615L15.9444 16.7221C16.4601 17.2378 16.7498 17.9373 16.7498 18.6667H18.2498ZM17.005 15.6615C16.208 14.8644 15.127 14.4167 13.9998 14.4167V15.9167C14.7292 15.9167 15.4287 16.2064 15.9444 16.7221L17.005 15.6615ZM13.9998 14.4167C12.8727 14.4167 11.7917 14.8644 10.9946 15.6615L12.0553 16.7221C12.571 16.2064 13.2705 15.9167 13.9998 15.9167V14.4167ZM10.9946 15.6615C10.1976 16.4585 9.74984 17.5395 9.74984 18.6667H11.2498C11.2498 17.9373 11.5396 17.2378 12.0553 16.7221L10.9946 15.6615ZM9.74984 18.6667V23.3333H11.2498V18.6667H9.74984ZM10.4998 22.5833H4.66651V24.0833H10.4998V22.5833ZM5.41651 23.3333L5.4165 11.6667L3.9165 11.6667L3.91651 23.3333L5.41651 23.3333Z" fill="white"/>
</svg>
