<svg width="28" height="28" viewBox="0 0 28 28" fill="none" xmlns="http://www.w3.org/2000/svg">
<path d="M22.803 23.8637C23.0959 24.1566 23.5708 24.1566 23.8637 23.8637C24.1566 23.5708 24.1566 23.0959 23.8637 22.803L22.803 23.8637ZM18.9675 17.9069C18.6746 17.614 18.1997 17.614 17.9069 17.9069C17.614 18.1998 17.614 18.6746 17.9069 18.9675L18.9675 17.9069ZM12.25 20.25C7.83172 20.25 4.25 16.6683 4.25 12.25H2.75C2.75 17.4967 7.0033 21.75 12.25 21.75V20.25ZM4.25 12.25C4.25 7.83172 7.83172 4.25 12.25 4.25V2.75C7.0033 2.75 2.75 7.00329 2.75 12.25H4.25ZM12.25 4.25C16.6683 4.25 20.25 7.83172 20.25 12.25H21.75C21.75 7.00329 17.4967 2.75 12.25 2.75V4.25ZM20.25 12.25C20.25 16.6683 16.6683 20.25 12.25 20.25V21.75C17.4967 21.75 21.75 17.4967 21.75 12.25H20.25ZM23.8637 22.803L18.9675 17.9069L17.9069 18.9675L22.803 23.8637L23.8637 22.803Z" fill="white"/>
</svg>
