<svg width="28" height="28" viewBox="0 0 28 28" fill="none" xmlns="http://www.w3.org/2000/svg">
<path d="M10.5 17.5L10.5 18.25H10.5V17.5ZM17.5 17.5L17.5 18.25L17.5 18.25L17.5 17.5ZM4.25 14C4.25 8.61522 8.61522 4.25 14 4.25V2.75C7.7868 2.75 2.75 7.7868 2.75 14H4.25ZM14 4.25C19.3848 4.25 23.75 8.61522 23.75 14H25.25C25.25 7.7868 20.2132 2.75 14 2.75V4.25ZM14 23.75C8.61522 23.75 4.25 19.3848 4.25 14H2.75C2.75 20.2132 7.7868 25.25 14 25.25V23.75ZM23.75 14C23.75 19.3848 19.3848 23.75 14 23.75V25.25C20.2132 25.25 25.25 20.2132 25.25 14H23.75ZM16.75 10.5C16.75 12.0188 15.5188 13.25 14 13.25V14.75C16.3472 14.75 18.25 12.8472 18.25 10.5H16.75ZM14 13.25C12.4812 13.25 11.25 12.0188 11.25 10.5H9.75C9.75 12.8472 11.6528 14.75 14 14.75V13.25ZM11.25 10.5C11.25 8.98122 12.4812 7.75 14 7.75V6.25C11.6528 6.25 9.75 8.15279 9.75 10.5H11.25ZM14 7.75C15.5188 7.75 16.75 8.98122 16.75 10.5H18.25C18.25 8.15279 16.3472 6.25 14 6.25V7.75ZM10.5 18.25H17.5V16.75H10.5V18.25ZM17.5 18.25C18.2532 18.25 18.9255 18.6761 19.4411 19.3926C19.9601 20.1138 20.25 21.0428 20.25 21.8264H21.75C21.75 20.7202 21.3564 19.4861 20.6586 18.5164C19.9575 17.5421 18.8798 16.75 17.5 16.75L17.5 18.25ZM7.75 21.8264C7.75 21.0428 8.03991 20.1138 8.55888 19.3926C9.07447 18.6761 9.74683 18.25 10.5 18.25L10.5 16.75C9.12017 16.75 8.04253 17.5421 7.34137 18.5164C6.64359 19.4861 6.25 20.7202 6.25 21.8264H7.75Z" fill="white"/>
</svg>
