<svg width="133" height="29" viewBox="0 0 133 29" fill="none" xmlns="http://www.w3.org/2000/svg">
<path d="M0.2 11C0.2 9.13333 0.653333 7.41333 1.56 5.84C2.49333 4.24 3.74667 2.98667 5.32 2.08C6.89333 1.14667 8.61333 0.679999 10.48 0.679999C12.3467 0.679999 14.0667 1.14667 15.64 2.08C17.2133 2.98667 18.4667 4.24 19.4 5.84C20.3333 7.41333 20.8 9.13333 20.8 11C20.8 12.8667 20.3333 14.6 19.4 16.2C18.4667 17.7733 17.2133 19.0267 15.64 19.96C14.0667 20.8667 12.3467 21.32 10.48 21.32C8.53333 21.32 6.85333 20.8133 5.44 19.8V29H0.2V11ZM10.52 16.24C11.9867 16.24 13.2 15.7467 14.16 14.76C15.12 13.7467 15.6 12.4933 15.6 11C15.6 9.50667 15.12 8.26667 14.16 7.28C13.2 6.26667 11.9867 5.76 10.52 5.76C9.05333 5.76 7.82667 6.26667 6.84 7.28C5.85333 8.26667 5.36 9.50667 5.36 11C5.36 12.4933 5.85333 13.7467 6.84 14.76C7.82667 15.7467 9.05333 16.24 10.52 16.24ZM33.1325 21.32C31.2658 21.32 29.5458 20.8667 27.9725 19.96C26.3992 19.0267 25.1458 17.7733 24.2125 16.2C23.2792 14.6 22.8125 12.8667 22.8125 11C22.8125 9.13333 23.2792 7.41333 24.2125 5.84C25.1458 4.24 26.3992 2.98667 27.9725 2.08C29.5458 1.14667 31.2658 0.679999 33.1325 0.679999C34.9992 0.679999 36.7192 1.14667 38.2925 2.08C39.8658 2.98667 41.1058 4.24 42.0125 5.84C42.9458 7.41333 43.4125 9.13333 43.4125 11V21H38.2125V18.88C37.9192 19.5467 37.2792 20.12 36.2925 20.6C35.3058 21.08 34.2525 21.32 33.1325 21.32ZM33.1725 16.24C34.6392 16.24 35.8525 15.7467 36.8125 14.76C37.7725 13.7467 38.2525 12.4933 38.2525 11C38.2525 9.50667 37.7725 8.26667 36.8125 7.28C35.8525 6.26667 34.6392 5.76 33.1725 5.76C31.7058 5.76 30.4792 6.26667 29.4925 7.28C28.5058 8.26667 28.0125 9.50667 28.0125 11C28.0125 12.4933 28.5058 13.7467 29.4925 14.76C30.4792 15.7467 31.7058 16.24 33.1725 16.24ZM45.825 11C45.825 9.13333 46.2783 7.41333 47.185 5.84C48.1183 4.24 49.3717 2.98667 50.945 2.08C52.5183 1.14667 54.2383 0.679999 56.105 0.679999C57.9717 0.679999 59.6917 1.14667 61.265 2.08C62.8383 2.98667 64.0917 4.24 65.025 5.84C65.9583 7.41333 66.425 9.13333 66.425 11C66.425 12.8667 65.9583 14.6 65.025 16.2C64.0917 17.7733 62.8383 19.0267 61.265 19.96C59.6917 20.8667 57.9717 21.32 56.105 21.32C54.1583 21.32 52.4783 20.8133 51.065 19.8V29H45.825V11ZM56.145 16.24C57.6117 16.24 58.825 15.7467 59.785 14.76C60.745 13.7467 61.225 12.4933 61.225 11C61.225 9.50667 60.745 8.26667 59.785 7.28C58.825 6.26667 57.6117 5.76 56.145 5.76C54.6783 5.76 53.4517 6.26667 52.465 7.28C51.4783 8.26667 50.985 9.50667 50.985 11C50.985 12.4933 51.4783 13.7467 52.465 14.76C53.4517 15.7467 54.6783 16.24 56.145 16.24ZM78.7575 21.32C76.8908 21.32 75.1708 20.8667 73.5975 19.96C72.0242 19.0267 70.7708 17.7733 69.8375 16.2C68.9042 14.6 68.4375 12.8667 68.4375 11C68.4375 9.13333 68.9042 7.41333 69.8375 5.84C70.7708 4.24 72.0242 2.98667 73.5975 2.08C75.1708 1.14667 76.8908 0.679999 78.7575 0.679999C80.6242 0.679999 82.3442 1.14667 83.9175 2.08C85.4908 2.98667 86.7308 4.24 87.6375 5.84C88.5708 7.41333 89.0375 9.13333 89.0375 11V21H83.8375V18.88C83.5442 19.5467 82.9042 20.12 81.9175 20.6C80.9308 21.08 79.8775 21.32 78.7575 21.32ZM78.7975 16.24C80.2642 16.24 81.4775 15.7467 82.4375 14.76C83.3975 13.7467 83.8775 12.4933 83.8775 11C83.8775 9.50667 83.3975 8.26667 82.4375 7.28C81.4775 6.26667 80.2642 5.76 78.7975 5.76C77.3308 5.76 76.1042 6.26667 75.1175 7.28C74.1308 8.26667 73.6375 9.50667 73.6375 11C73.6375 12.4933 74.1308 13.7467 75.1175 14.76C76.1042 15.7467 77.3308 16.24 78.7975 16.24ZM100.641 29C98.5873 29 96.8006 28.4133 95.2806 27.24C93.7873 26.0667 92.6806 24.48 91.9606 22.48H97.7606C98.1606 22.96 98.5606 23.32 98.9606 23.56C99.3873 23.8 99.9473 23.92 100.641 23.92C101.841 23.92 102.734 23.6267 103.321 23.04C103.907 22.48 104.201 21.7067 104.201 20.72V20.6C103.054 21.08 101.867 21.32 100.641 21.32C97.974 21.32 95.8406 20.5067 94.2406 18.88C92.6406 17.2267 91.8406 14.7733 91.8406 11.52V1H97.0406V11.52C97.0406 13.1467 97.3206 14.3467 97.8806 15.12C98.4673 15.8667 99.3873 16.24 100.641 16.24C101.894 16.24 102.801 15.8667 103.361 15.12C103.947 14.3467 104.241 13.1467 104.241 11.52V1H109.441V20C109.441 21.68 109.054 23.2 108.281 24.56C107.534 25.9467 106.494 27.0267 105.161 27.8C103.827 28.6 102.321 29 100.641 29ZM121.961 21.32C120.094 21.32 118.374 20.8667 116.801 19.96C115.227 19.0267 113.974 17.7733 113.041 16.2C112.107 14.6 111.641 12.8667 111.641 11C111.641 9.13333 112.107 7.41333 113.041 5.84C113.974 4.24 115.227 2.98667 116.801 2.08C118.374 1.14667 120.094 0.679999 121.961 0.679999C123.827 0.679999 125.547 1.14667 127.121 2.08C128.694 2.98667 129.934 4.24 130.841 5.84C131.774 7.41333 132.241 9.13333 132.241 11V21H127.041V18.88C126.747 19.5467 126.107 20.12 125.121 20.6C124.134 21.08 123.081 21.32 121.961 21.32ZM122.001 16.24C123.467 16.24 124.681 15.7467 125.641 14.76C126.601 13.7467 127.081 12.4933 127.081 11C127.081 9.50667 126.601 8.26667 125.641 7.28C124.681 6.26667 123.467 5.76 122.001 5.76C120.534 5.76 119.307 6.26667 118.321 7.28C117.334 8.26667 116.841 9.50667 116.841 11C116.841 12.4933 117.334 13.7467 118.321 14.76C119.307 15.7467 120.534 16.24 122.001 16.24Z" fill="white"/>
</svg>
