<svg width="20" height="20" viewBox="0 0 20 20" xmlns="http://www.w3.org/2000/svg">
<path d="M3.3335 9.24992C2.91928 9.24992 2.5835 9.5857 2.5835 9.99992C2.5835 10.4141 2.91928 10.7499 3.3335 10.7499V9.24992ZM16.6668 10.7499C17.081 10.7499 17.4168 10.4141 17.4168 9.99992C17.4168 9.5857 17.081 9.24992 16.6668 9.24992V10.7499ZM10.7502 3.33325C10.7502 2.91904 10.4144 2.58325 10.0002 2.58325C9.58595 2.58325 9.25016 2.91904 9.25016 3.33325H10.7502ZM9.25016 16.6666C9.25016 17.0808 9.58595 17.4166 10.0002 17.4166C10.4144 17.4166 10.7502 17.0808 10.7502 16.6666H9.25016ZM3.3335 10.7499H16.6668V9.24992H3.3335V10.7499ZM9.25016 3.33325V16.6666H10.7502V3.33325H9.25016Z"/>
</svg>
